<svg xmlns="http://www.w3.org/2000/svg" width="59" height="58.969" viewBox="0 0 59 58.969">
  <g id="agile" transform="translate(-39.016 -39.116)">
    <g id="Group_151" data-name="Group 151" transform="translate(39.016 43.908)">
      <path id="Path_47" data-name="Path 47" d="M42.4,117.28a.988.988,0,0,1-.905-.57A29.653,29.653,0,0,1,39.03,105.5c-.184-5.984,1.358-14.8,9.806-22.781a1.008,1.008,0,0,1,1.391,1.458c-6.336,5.984-9.421,13.109-9.186,21.188A28.555,28.555,0,0,0,43.3,115.838a1,1,0,0,1-.469,1.341A.978.978,0,0,1,42.4,117.28Z" transform="translate(-39.016 -79.966)" fill="#fff"/>
      <g id="Group_150" data-name="Group 150" transform="translate(3.266)">
        <path id="Path_48" data-name="Path 48" d="M68.206,69.712h-8.7a1.006,1.006,0,0,1,0-2.012h8.683a1.009,1.009,0,0,1,1.006,1.006A1,1,0,0,1,68.206,69.712Z" transform="translate(-58.5 -67.7)" fill="#fff"/>
        <path id="Path_49" data-name="Path 49" d="M111.406,78.411a1.009,1.009,0,0,1-1.006-1.006v-8.7a1.006,1.006,0,1,1,2.012,0v8.683A1.012,1.012,0,0,1,111.406,78.411Z" transform="translate(-101.7 -67.7)" fill="#fff"/>
      </g>
    </g>
    <g id="Group_153" data-name="Group 153" transform="translate(56.148 39.116)">
      <path id="Path_50" data-name="Path 50" d="M175.042,50.63a.991.991,0,0,1-.738-.318c-5.968-6.32-13.092-9.4-21.172-9.169A28.555,28.555,0,0,0,142.657,43.4a1,1,0,0,1-.872-1.81A29.653,29.653,0,0,1,153,39.13c5.984-.184,14.8,1.358,22.781,9.806a1.007,1.007,0,0,1-.034,1.425A1.153,1.153,0,0,1,175.042,50.63Z" transform="translate(-141.218 -39.116)" fill="#fff"/>
      <g id="Group_152" data-name="Group 152" transform="translate(26.6 3.266)">
        <path id="Path_51" data-name="Path 51" d="M352.706,69.311a1.009,1.009,0,0,1-1.006-1.006v-8.7a1.006,1.006,0,0,1,2.012,0v8.683A1.012,1.012,0,0,1,352.706,69.311Z" transform="translate(-343.017 -58.6)" fill="#fff"/>
        <path id="Path_52" data-name="Path 52" d="M309.589,112.512h-8.683a1.006,1.006,0,0,1,0-2.012h8.683a1.006,1.006,0,0,1,0,2.012Z" transform="translate(-299.9 -101.8)" fill="#fff"/>
      </g>
    </g>
    <g id="Group_155" data-name="Group 155" transform="translate(84.039 55.645)">
      <path id="Path_53" data-name="Path 53" d="M323.252,172.565a.991.991,0,0,1-.738-.318,1.007,1.007,0,0,1,.034-1.425c6.32-5.984,9.4-13.109,9.186-21.188a28.555,28.555,0,0,0-2.263-10.477,1,1,0,0,1,1.81-.872,29.653,29.653,0,0,1,2.464,11.214c.184,5.984-1.358,14.8-9.806,22.781A.912.912,0,0,1,323.252,172.565Z" transform="translate(-319.782 -137.718)" fill="#fff"/>
      <g id="Group_154" data-name="Group 154" transform="translate(0 26.633)">
        <path id="Path_54" data-name="Path 54" d="M317.389,350.412h-8.683a1.006,1.006,0,0,1,0-2.012h8.683a1.006,1.006,0,1,1,0,2.012Z" transform="translate(-307.683 -339.717)" fill="#fff"/>
        <path id="Path_55" data-name="Path 55" d="M308.606,307.295a1.009,1.009,0,0,1-1.006-1.006v-8.683a1.006,1.006,0,0,1,2.012,0v8.683A1.009,1.009,0,0,1,308.606,307.295Z" transform="translate(-307.6 -296.6)" fill="#fff"/>
      </g>
    </g>
    <g id="Group_157" data-name="Group 157" transform="translate(43.808 84.105)">
      <path id="Path_56" data-name="Path 56" d="M104.39,333.663c-5.951,0-14.282-1.794-21.876-9.823a1.008,1.008,0,1,1,1.458-1.391c5.984,6.32,13.109,9.4,21.188,9.186a28.555,28.555,0,0,0,10.477-2.263,1,1,0,0,1,.872,1.81,29.653,29.653,0,0,1-11.214,2.464C105.01,333.663,104.709,333.663,104.39,333.663Z" transform="translate(-79.782 -319.682)" fill="#fff"/>
      <g id="Group_156" data-name="Group 156" transform="translate(0 0)">
        <path id="Path_57" data-name="Path 57" d="M68.606,318.295a1.009,1.009,0,0,1-1.006-1.006v-8.683a1.006,1.006,0,0,1,2.012,0v8.683A1.009,1.009,0,0,1,68.606,318.295Z" transform="translate(-67.6 -307.583)" fill="#fff"/>
        <path id="Path_58" data-name="Path 58" d="M77.289,309.512H68.606a1.006,1.006,0,1,1,0-2.012h8.683a1.006,1.006,0,0,1,0,2.012Z" transform="translate(-67.6 -307.5)" fill="#fff"/>
      </g>
    </g>
  </g>
</svg>
