<svg xmlns="http://www.w3.org/2000/svg" width="33.963" height="21.292" viewBox="0 0 33.963 21.292">
  <path id="behance" d="M30.646,1.936H22.172V3.993h8.474ZM26.466,9a3.248,3.248,0,0,0-3.449,3.235h6.766Q29.485,9,26.466,9Zm.265,9.7a4.192,4.192,0,0,0,2.024-.531,2.457,2.457,0,0,0,1.26-1.442h3.665A6.8,6.8,0,0,1,26.6,21.819a7.454,7.454,0,0,1-5.646-2.189,7.971,7.971,0,0,1-2.1-5.753,7.993,7.993,0,0,1,2.164-5.729,7.35,7.35,0,0,1,5.58-2.28,7.049,7.049,0,0,1,3.989,1.127,6.948,6.948,0,0,1,2.537,2.968,9.834,9.834,0,0,1,.838,4.112q0,.282-.033.779H23.018a3.968,3.968,0,0,0,.954,2.844,3.628,3.628,0,0,0,2.76,1ZM4.592,17.872H9.5q3.4,0,3.4-2.77,0-2.985-3.3-2.985H4.593v5.755Zm0-8.9H9.252A3.182,3.182,0,0,0,11.3,8.362a2.27,2.27,0,0,0,.756-1.881q0-2.388-3.151-2.388H4.593V8.969ZM0,.527H9.85a12.835,12.835,0,0,1,2.571.232,7.047,7.047,0,0,1,2.1.788,3.707,3.707,0,0,1,1.492,1.6A5.658,5.658,0,0,1,16.533,5.7a4.542,4.542,0,0,1-2.852,4.361,4.973,4.973,0,0,1,2.852,1.907,5.764,5.764,0,0,1,.962,3.383,6.061,6.061,0,0,1-.407,2.263,5.086,5.086,0,0,1-1.094,1.716,6.272,6.272,0,0,1-1.633,1.177,7.831,7.831,0,0,1-2.007.7,11.209,11.209,0,0,1-2.222.216H0Z" transform="translate(0 -0.527)" fill="#fff"/>
</svg>
