<svg xmlns="http://www.w3.org/2000/svg" width="27.639" height="27.639" viewBox="0 0 27.639 27.639">
  <path id="github" d="M13.819,0a13.266,13.266,0,0,1,6.937,1.9,13.933,13.933,0,0,1,5.029,5.155,14.126,14.126,0,0,1,1.853,7.11A14,14,0,0,1,25,22.493a13.565,13.565,0,0,1-6.811,5.118.791.791,0,0,1-.72-.129.729.729,0,0,1-.234-.553q0-.055.009-1.411t.009-2.481a3.331,3.331,0,0,0-.936-2.619,12.081,12.081,0,0,0,1.844-.332,7.247,7.247,0,0,0,1.691-.719,5.051,5.051,0,0,0,1.457-1.227,5.776,5.776,0,0,0,.954-1.937,9.52,9.52,0,0,0,.37-2.776,5.541,5.541,0,0,0-1.422-3.8,5.024,5.024,0,0,0-.144-3.763,2.3,2.3,0,0,0-1.457.2,9.619,9.619,0,0,0-1.655.811l-.684.443a12.692,12.692,0,0,0-6.91,0q-.288-.2-.765-.5a10.7,10.7,0,0,0-1.5-.711,2.421,2.421,0,0,0-1.529-.249,5.024,5.024,0,0,0-.144,3.763A5.541,5.541,0,0,0,5,13.427a9.434,9.434,0,0,0,.369,2.767,5.966,5.966,0,0,0,.946,1.937,4.907,4.907,0,0,0,1.449,1.236,7.21,7.21,0,0,0,1.691.719,12.128,12.128,0,0,0,1.844.332,3.146,3.146,0,0,0-.881,1.9,3.535,3.535,0,0,1-.81.277,4.911,4.911,0,0,1-1.026.092,2.093,2.093,0,0,1-1.178-.4,3.217,3.217,0,0,1-1-1.153,2.945,2.945,0,0,0-.873-.959,2.607,2.607,0,0,0-.891-.443l-.36-.055a1.149,1.149,0,0,0-.522.083q-.144.083-.09.212a1.02,1.02,0,0,0,.162.258,1.337,1.337,0,0,0,.234.221l.126.092a2.183,2.183,0,0,1,.783.7,4.647,4.647,0,0,1,.567.94l.18.424a2.336,2.336,0,0,0,.792,1.134,2.773,2.773,0,0,0,1.205.553,7.43,7.43,0,0,0,1.251.129,5.232,5.232,0,0,0,1-.065l.414-.074q0,.7.009,1.632t.009,1a.729.729,0,0,1-.234.553.791.791,0,0,1-.72.129,13.561,13.561,0,0,1-6.811-5.118A14,14,0,0,1,0,14.165a14.126,14.126,0,0,1,1.853-7.11A13.933,13.933,0,0,1,6.883,1.9,13.266,13.266,0,0,1,13.819,0ZM5.236,20.345q.054-.129-.126-.221-.18-.055-.234.037-.054.129.126.221Q5.164,20.493,5.236,20.345Zm.558.627q.126-.092-.036-.3-.18-.166-.288-.055-.126.092.036.3Q5.686,21.1,5.794,20.972Zm.54.83q.162-.129,0-.35-.144-.24-.306-.111-.162.092,0,.332T6.334,21.8Zm.755.774q.144-.148-.072-.35-.216-.221-.36-.055-.162.148.072.35Q6.945,22.743,7.089,22.577Zm1.026.461q.054-.2-.234-.3-.27-.074-.342.129t.234.277q.27.111.342-.111Zm1.134.092q0-.24-.306-.2-.288,0-.288.2,0,.24.306.2Q9.249,23.333,9.249,23.13Zm1.043-.184q-.036-.2-.324-.166-.288.055-.252.277t.324.148q.288-.074.252-.258Z" fill="#fff"/>
</svg>
