<svg xmlns="http://www.w3.org/2000/svg" width="69" height="77.775" viewBox="0 0 69 77.775">
  <g id="GTM" transform="translate(-65.91 -46.93)">
    <g id="Group_158" data-name="Group 158" transform="translate(65.91 85.283)">
      <path id="Path_59" data-name="Path 59" d="M79.653,325.285a16.735,16.735,0,0,1-6.415-1.27,7.445,7.445,0,0,0-2.041-.532l-2.738-.315a2.879,2.879,0,0,1-2.55-2.862v-2.761a9.657,9.657,0,0,1,9.645-9.645h8.256a9.657,9.657,0,0,1,9.645,9.645v2.763a2.883,2.883,0,0,1-2.55,2.862l-2.89.333a7.069,7.069,0,0,0-1.918.5A16.8,16.8,0,0,1,79.653,325.285Zm-4.1-14.611a6.876,6.876,0,0,0-6.868,6.868V320.3a.1.1,0,0,0,.093.1l2.74.315a10.231,10.231,0,0,1,2.768.72,14.036,14.036,0,0,0,10.742,0,9.885,9.885,0,0,1,2.67-.7l2.89-.333a.1.1,0,0,0,.093-.1V317.54a6.876,6.876,0,0,0-6.868-6.868H75.555Z" transform="translate(-65.91 -285.863)" fill="#fff"/>
      <path id="Path_60" data-name="Path 60" d="M100.482,232.858a7.292,7.292,0,0,1-7.315-7.065l-.192-5.549a7.321,7.321,0,0,1,7.315-7.574h.386a7.321,7.321,0,0,1,7.315,7.574l-.192,5.549A7.3,7.3,0,0,1,100.482,232.858Zm-.192-17.409a4.542,4.542,0,0,0-4.54,4.7l.192,5.549a4.542,4.542,0,0,0,9.078,0l.192-5.549a4.542,4.542,0,0,0-4.54-4.7h-.382Z" transform="translate(-86.709 -212.67)" fill="#fff"/>
    </g>
    <path id="Path_61" data-name="Path 61" d="M103.6,112.374a1.382,1.382,0,0,1-.988-.414l-7.5-7.6H85.356A3.76,3.76,0,0,1,81.6,100.6V83.923a3.759,3.759,0,0,1,3.756-3.753H100.29a1.388,1.388,0,0,1,0,2.777H85.356a.979.979,0,0,0-.979.977V100.6a.981.981,0,0,0,.979.979H95.692a1.381,1.381,0,0,1,.988.414l6.937,7.03,7.139-7.044a1.386,1.386,0,0,1,.974-.4H122.2a.986.986,0,0,0,.909-.62,1.389,1.389,0,0,1,2.582,1.023,3.737,3.737,0,0,1-3.492,2.374h-9.9l-7.722,7.618A1.377,1.377,0,0,1,103.6,112.374Z" transform="translate(-12.059 -25.548)" fill="#fff"/>
    <g id="Group_159" data-name="Group 159" transform="translate(107.364 84.494)">
      <path id="Path_62" data-name="Path 62" d="M258.793,321.875a16.743,16.743,0,0,1-6.415-1.27l-.025-.009a7.542,7.542,0,0,0-2.016-.523l-2.738-.315a2.879,2.879,0,0,1-2.55-2.862v-2.761a9.657,9.657,0,0,1,9.645-9.645h8.256a9.657,9.657,0,0,1,9.645,9.645V316.9a2.883,2.883,0,0,1-2.55,2.862l-2.89.333a7.069,7.069,0,0,0-1.918.5A16.8,16.8,0,0,1,258.793,321.875Zm-4.1-14.613a6.876,6.876,0,0,0-6.868,6.868v2.761a.105.105,0,0,0,.093.1l2.738.315a10.3,10.3,0,0,1,2.768.72.124.124,0,0,1,.025.012,14.02,14.02,0,0,0,10.719-.014,9.885,9.885,0,0,1,2.67-.7l2.89-.333a.1.1,0,0,0,.093-.1v-2.763a6.876,6.876,0,0,0-6.868-6.868h-8.259Z" transform="translate(-245.05 -282.453)" fill="#fff"/>
      <path id="Path_63" data-name="Path 63" d="M279.622,229.448a7.292,7.292,0,0,1-7.315-7.065l-.192-5.549a7.321,7.321,0,0,1,7.315-7.574h.386a7.321,7.321,0,0,1,7.315,7.574l-.192,5.549A7.3,7.3,0,0,1,279.622,229.448Zm-.194-17.411a4.542,4.542,0,0,0-4.54,4.7l.192,5.549a4.542,4.542,0,0,0,9.078,0l.192-5.549a4.542,4.542,0,0,0-4.54-4.7h-.382Z" transform="translate(-265.849 -209.26)" fill="#fff"/>
    </g>
    <path id="Path_64" data-name="Path 64" d="M187.582,80.15a1.385,1.385,0,0,1-.618-.146l-16.381-8.15H160.217a3.842,3.842,0,0,1-3.837-3.837V50.767a3.842,3.842,0,0,1,3.837-3.837h38.115a3.842,3.842,0,0,1,3.837,3.837V68.02a3.842,3.842,0,0,1-3.837,3.837H188.9l.067,6.894a1.387,1.387,0,0,1-1.388,1.4ZM160.214,49.707a1.061,1.061,0,0,0-1.06,1.06V68.02a1.061,1.061,0,0,0,1.06,1.06h10.693a1.363,1.363,0,0,1,.618.146l14.646,7.285-.06-6.028a1.391,1.391,0,0,1,1.388-1.4h10.83a1.061,1.061,0,0,0,1.06-1.06V50.767a1.061,1.061,0,0,0-1.06-1.06Z" transform="translate(-69.535)" fill="#fff"/>
  </g>
</svg>
