<svg xmlns="http://www.w3.org/2000/svg" width="75.534" height="59" viewBox="0 0 75.534 59">
  <g id="productStrategy" transform="translate(-62.23 -115.3)">
    <g id="Group_164" data-name="Group 164" transform="translate(62.23 115.3)">
      <path id="Path_74" data-name="Path 74" d="M89.522,280.3H67.392a5.169,5.169,0,0,0-5.162,5.162v7.886a5.169,5.169,0,0,0,5.162,5.162H89.522a5.169,5.169,0,0,0,5.162-5.162v-7.886A5.169,5.169,0,0,0,89.522,280.3Zm2.2,13.048a2.2,2.2,0,0,1-2.2,2.2H67.392a2.2,2.2,0,0,1-2.2-2.2v-7.886a2.2,2.2,0,0,1,2.2-2.2H89.522a2.2,2.2,0,0,1,2.2,2.2Z" transform="translate(-62.23 -239.51)" fill="#fff"/>
      <path id="Path_91" data-name="Path 91" d="M89.522,280.3H67.392a5.169,5.169,0,0,0-5.162,5.162v7.886a5.169,5.169,0,0,0,5.162,5.162H89.522a5.169,5.169,0,0,0,5.162-5.162v-7.886A5.169,5.169,0,0,0,89.522,280.3Zm2.2,13.048a2.2,2.2,0,0,1-2.2,2.2H67.392a2.2,2.2,0,0,1-2.2-2.2v-7.886a2.2,2.2,0,0,1,2.2-2.2H89.522a2.2,2.2,0,0,1,2.2,2.2Z" transform="translate(-40.97 -280.3)" fill="#fff"/>
      <path id="Path_75" data-name="Path 75" d="M264.151,280.3H242.142a5.169,5.169,0,0,0-5.162,5.162v7.886a5.169,5.169,0,0,0,5.162,5.162h22.009a5.169,5.169,0,0,0,5.162-5.162v-7.886A5.166,5.166,0,0,0,264.151,280.3Zm2.2,13.048a2.2,2.2,0,0,1-2.2,2.2H242.144a2.2,2.2,0,0,1-2.2-2.2v-7.886a2.2,2.2,0,0,1,2.2-2.2h22.009a2.2,2.2,0,0,1,2.2,2.2Z" transform="translate(-193.779 -239.51)" fill="#fff"/>
    </g>
    <g id="Group_165" data-name="Group 165" transform="translate(82.486 136.619)">
      <path id="Path_89" data-name="Path 89" d="M153.358,201.713a1.484,1.484,0,0,0-2,.613L144.34,215.52a1.482,1.482,0,1,0,2.618,1.389l7.013-13.194A1.482,1.482,0,0,0,153.358,201.713Z" transform="translate(-144.166 -201.539)" fill="#fff"/>
      <path id="Path_90" data-name="Path 90" d="M248.266,202.323a1.482,1.482,0,1,0-2.618,1.392l7.013,13.194a1.482,1.482,0,1,0,2.618-1.389Z" transform="translate(-220.429 -201.536)" fill="#fff"/>
    </g>
  </g>
</svg>
