<svg xmlns="http://www.w3.org/2000/svg" width="59.313" height="59" viewBox="0 0 59.313 59">
  <g id="productAnalytics" transform="translate(-39.825 -40.72)">
    <path id="Path_44" data-name="Path 44" d="M65.329,91.754A25.517,25.517,0,1,1,83.372,84.28,25.35,25.35,0,0,1,65.329,91.754Zm0-48.967a23.451,23.451,0,1,0,16.582,6.868h0A23.293,23.293,0,0,0,65.329,42.786Z" fill="#fff"/>
    <path id="Path_45" data-name="Path 45" d="M76.814,87.211a1.088,1.088,0,0,1-.4-.078,1.076,1.076,0,0,1-.6-1.4A20.768,20.768,0,0,1,88.768,73.742a1.075,1.075,0,0,1,.649,2.049A18.624,18.624,0,0,0,77.811,86.54,1.077,1.077,0,0,1,76.814,87.211Z" transform="translate(-29.857 -27.411)" fill="#fff"/>
    <path id="Path_46" data-name="Path 46" d="M304.81,306.348a1.233,1.233,0,0,1-.869-.356L289.09,291.4a1.239,1.239,0,0,1,1.737-1.768l14.852,14.6a1.24,1.24,0,0,1-.869,2.124Z" transform="translate(-206.912 -206.628)" fill="#fff"/>
  </g>
</svg>
