<svg xmlns="http://www.w3.org/2000/svg" width="59" height="60.114" viewBox="0 0 59 60.114">
  <g id="productRoadmap" transform="translate(-10 -0.751)">
    <g id="Group_149" data-name="Group 149" transform="translate(10 0.752)">
      <path id="Path_16" data-name="Path 16" d="M669.642-511.1a10.545,10.545,0,0,0-3.665,1.8,10.935,10.935,0,0,0-3.336,5.416,9.026,9.026,0,0,0-.27,2.7,9.36,9.36,0,0,0,.752,4.206c.552,1.433,1.221,2.314,4.864,6.426,2.737,3.09,3.43,3.795,3.548,3.677,1.292-1.363,7.025-8,7.307-8.47a12.387,12.387,0,0,0,1.386-3.43,12.712,12.712,0,0,0-.117-5.157,9.639,9.639,0,0,0-6.356-7A9.508,9.508,0,0,0,669.642-511.1Zm3.007,3.924a5.507,5.507,0,0,1,2.7,9.433,5.4,5.4,0,0,1-7.425,0,5.159,5.159,0,0,1-1.751-4.029A5.467,5.467,0,0,1,672.649-507.173Z" transform="translate(-623.095 511.248)" fill="#fff"/>
      <path id="Path_17" data-name="Path 17" d="M479.532-144.608c-1.268.411-1.762.81-1.762,1.421a1.066,1.066,0,0,0,.658.94c.211.082.494.023,1.151-.235a4.922,4.922,0,0,1,1.128-.352,1.315,1.315,0,0,0,.94-1,1.117,1.117,0,0,0-.341-.658C480.895-144.891,480.5-144.926,479.532-144.608Z" transform="translate(-449.609 166.882)" fill="#fff"/>
      <path id="Path_18" data-name="Path 18" d="M575.448-144.7a.891.891,0,0,0,.07,1.4c.341.294.435.305,1.656.305,1.268,0,1.292,0,1.633-.341a1.134,1.134,0,0,0,.341-.6,1.385,1.385,0,0,0-.529-.987,11.123,11.123,0,0,0-1.539-.07C575.8-144.99,575.719-144.979,575.448-144.7Z" transform="translate(-541.12 167.04)" fill="#fff"/>
      <path id="Path_19" data-name="Path 19" d="M675.136-144.7a.892.892,0,0,0,.047,1.363c.341.341.364.341,1.656.341s1.316,0,1.656-.341a.892.892,0,0,0,.047-1.363c-.27-.282-.352-.294-1.7-.294S675.407-144.979,675.136-144.7Z" transform="translate(-634.816 167.04)" fill="#fff"/>
      <path id="Path_20" data-name="Path 20" d="M20.575-95.355a12.123,12.123,0,0,0-8.224,5.345,14.856,14.856,0,0,0,.012,16.059c.564.858,9.339,10.9,9.586,11,.117.047,8.67-9.6,9.433-10.655a14.157,14.157,0,0,0,2.549-8.341,14.015,14.015,0,0,0-1.48-6.614,13.148,13.148,0,0,0-6.132-5.969A11.914,11.914,0,0,0,20.575-95.355Zm3.031,6.18a6.432,6.432,0,0,1,3.665,2.925,6.711,6.711,0,0,1,.541,4.288,6.07,6.07,0,0,1-6.226,4.535,5.987,5.987,0,0,1-5.486-4.9,5.979,5.979,0,0,1,3.959-6.755A6.722,6.722,0,0,1,23.605-89.175Z" transform="translate(-10 120.459)" fill="#fff"/>
      <path id="Path_21" data-name="Path 21" d="M443.275-79.619c-.47.188-.635.576-.635,1.5a7.425,7.425,0,0,0,.129,1.386c.235.928,1.057,1.269,1.7.716.352-.305.352-.376.2-2.044-.07-.846-.153-1.14-.329-1.315A1.033,1.033,0,0,0,443.275-79.619Z" transform="translate(-416.594 105.663)" fill="#fff"/>
      <path id="Path_22" data-name="Path 22" d="M490.829.087A.972.972,0,0,0,490.7,1.45a3.607,3.607,0,0,0,2.256.635c.834.023.9,0,1.175-.305A.939.939,0,0,0,493.5.169a6.213,6.213,0,0,1-.963-.129C491.287-.23,491.181-.23,490.829.087Z" transform="translate(-461.551 30.927)" fill="#fff"/>
      <path id="Path_23" data-name="Path 23" d="M590.026,5.427a1.041,1.041,0,0,0-.282,1.151c.211.541.705.693,2.067.646,1.093-.036,1.245-.059,1.515-.317a.982.982,0,0,0,.059-1.351c-.235-.306-.27-.306-1.68-.306A3.7,3.7,0,0,0,590.026,5.427Z" transform="translate(-554.781 25.845)" fill="#fff"/>
      <path id="Path_24" data-name="Path 24" d="M689.558,5.514a.946.946,0,0,0-.188,1.163c.258.482.822.635,2.15.588.94-.047,1.116-.082,1.374-.329a.976.976,0,0,0,.035-1.4c-.247-.235-.4-.258-1.7-.258C689.958,5.278,689.77,5.3,689.558,5.514Z" transform="translate(-648.357 25.817)" fill="#fff"/>
      <path id="Path_25" data-name="Path 25" d="M789.431,5.528a.871.871,0,0,0-.223,1.081.86.86,0,0,0,.541.529A6.567,6.567,0,0,0,792.5,7.1a.951.951,0,0,0,.529-1.21c-.211-.552-.411-.611-1.939-.623C789.76,5.269,789.654,5.281,789.431,5.528Z" transform="translate(-742.203 25.826)" fill="#fff"/>
      <path id="Path_26" data-name="Path 26" d="M889.83,5.582a1.194,1.194,0,0,0-.153,1.257c.129.247.552.423,1.234.541a4.663,4.663,0,0,1,.916.305.985.985,0,0,0,1.551-.611c.2-.81-.975-1.609-2.526-1.727C890.16,5.3,890.066,5.323,889.83,5.582Z" transform="translate(-836.611 25.773)" fill="#fff"/>
      <path id="Path_27" data-name="Path 27" d="M955.222,68.124c-.282.247-.305.376-.352,1.327a9.188,9.188,0,0,1-.129,1.292.979.979,0,0,0,.164.611.989.989,0,0,0,1.8-.282,6.651,6.651,0,0,0,.153-1.539c0-1.057-.011-1.116-.329-1.386A.949.949,0,0,0,955.222,68.124Z" transform="translate(-897.855 -33.011)" fill="#fff"/>
      <path id="Path_28" data-name="Path 28" d="M882.274,148.1a6.344,6.344,0,0,1-1.093.211,1.8,1.8,0,0,0-1.093.364.975.975,0,0,0-.036,1.327c.211.27.317.305,1.034.305a4.06,4.06,0,0,0,2.338-.623.85.85,0,0,0,.258-.635c0-.552-.164-.81-.6-.963S882.65,147.937,882.274,148.1Z" transform="translate(-827.445 -108.289)" fill="#fff"/>
      <path id="Path_29" data-name="Path 29" d="M580.308,153.793a.924.924,0,0,0-.341,1.281,1.125,1.125,0,0,0,.364.423,11.635,11.635,0,0,0,1.574.07c1.292,0,1.4-.011,1.633-.27a1,1,0,0,0,.258-.682c-.011-.81-.435-1.046-1.962-1.046A2.81,2.81,0,0,0,580.308,153.793Z" transform="translate(-545.533 -113.546)" fill="#fff"/>
      <path id="Path_30" data-name="Path 30" d="M680.178,153.741a1.1,1.1,0,0,0-.494,1.093,1.722,1.722,0,0,0,.305.458c.223.247.341.27,1.668.27s1.445-.023,1.668-.27a1.7,1.7,0,0,0,.305-.458,1.066,1.066,0,0,0-.517-1.093A6.21,6.21,0,0,0,680.178,153.741Z" transform="translate(-639.341 -113.541)" fill="#fff"/>
      <path id="Path_31" data-name="Path 31" d="M780.531,153.763a1.013,1.013,0,0,0-.258,1.6c.247.235.4.258,1.656.258a6.593,6.593,0,0,0,1.586-.117,1.044,1.044,0,0,0,.364-.47.972.972,0,0,0-.482-1.234A6.745,6.745,0,0,0,780.531,153.763Z" transform="translate(-733.632 -113.598)" fill="#fff"/>
      <path id="Path_32" data-name="Path 32" d="M511.508,185.189a5.069,5.069,0,0,0-1.116,2.115c-.2.9.247,1.48,1.093,1.421a1.178,1.178,0,0,0,.834-.893,4.759,4.759,0,0,1,.423-.975c.423-.763.435-1.245.047-1.621A.917.917,0,0,0,511.508,185.189Z" transform="translate(-480.222 -143.038)" fill="#fff"/>
      <path id="Path_33" data-name="Path 33" d="M527.255,277.044a1.074,1.074,0,0,0-.705.975c0,.352.094.517.622,1.022a4.5,4.5,0,0,0,1.974,1.21,1.349,1.349,0,0,0,.564-.305.953.953,0,0,0-.235-1.645,5.908,5.908,0,0,1-.858-.622C527.913,277.021,527.643,276.9,527.255,277.044Z" transform="translate(-495.452 -229.537)" fill="#fff"/>
      <path id="Path_34" data-name="Path 34" d="M618.724,303.961a.969.969,0,0,0-.235,1.562c.27.282.352.294,1.668.294,1.445-.011,1.633-.059,1.892-.552a.825.825,0,0,0-.2-1.1c-.341-.341-.364-.341-1.621-.341A5.147,5.147,0,0,0,618.724,303.961Z" transform="translate(-581.576 -254.75)" fill="#fff"/>
      <path id="Path_35" data-name="Path 35" d="M718.113,304.161a.892.892,0,0,0-.047,1.363c.27.282.352.294,1.7.294s1.433-.011,1.7-.294a.892.892,0,0,0-.047-1.363c-.341-.341-.364-.341-1.656-.341S718.454,303.82,718.113,304.161Z" transform="translate(-675.162 -254.75)" fill="#fff"/>
      <path id="Path_36" data-name="Path 36" d="M817.181,311.9a1.252,1.252,0,0,0-.458,1.116,1.688,1.688,0,0,0,.716.775,7.666,7.666,0,0,1,.952.822,1,1,0,0,0,1.468.176c.729-.622.317-1.539-1.1-2.526C818.015,311.776,817.581,311.67,817.181,311.9Z" transform="translate(-768.144 -262.236)" fill="#fff"/>
      <path id="Path_37" data-name="Path 37" d="M843.937,395.871a1.576,1.576,0,0,0-.423.74,4.624,4.624,0,0,1-.482,1c-.6.893-.27,1.809.658,1.809.341,0,.494-.083.8-.435a5.036,5.036,0,0,0,1.01-2.15c.07-.411.036-.505-.282-.822A.91.91,0,0,0,843.937,395.871Z" transform="translate(-792.597 -341.068)" fill="#fff"/>
      <path id="Path_38" data-name="Path 38" d="M251.751,454.421a.806.806,0,0,0,0,1.316c.341.341.364.341,1.715.341,1.293,0,1.374-.011,1.645-.294a.98.98,0,0,0,0-1.41c-.27-.282-.352-.294-1.645-.294C252.115,454.08,252.091,454.08,251.751,454.421Z" transform="translate(-236.876 -395.964)" fill="#fff"/>
      <path id="Path_39" data-name="Path 39" d="M352.429,454.343a.945.945,0,0,0,0,1.433c.294.258.423.282,1.668.282,1.281,0,1.363-.011,1.633-.294a.98.98,0,0,0,0-1.41c-.27-.282-.352-.294-1.633-.294C352.852,454.061,352.723,454.085,352.429,454.343Z" transform="translate(-331.504 -395.945)" fill="#fff"/>
      <path id="Path_40" data-name="Path 40" d="M452.424,454.336a.994.994,0,0,0-.012,1.457c.27.282.352.294,1.633.294,1.245,0,1.374-.023,1.668-.282a.945.945,0,0,0,0-1.433c-.294-.258-.423-.282-1.645-.282C452.905,454.089,452.694,454.124,452.424,454.336Z" transform="translate(-425.484 -395.973)" fill="#fff"/>
      <path id="Path_41" data-name="Path 41" d="M552.214,454.374a.993.993,0,0,0,0,1.41c.27.282.352.294,1.645.294,1.351,0,1.374,0,1.715-.341a.806.806,0,0,0,0-1.316c-.341-.341-.364-.341-1.715-.341C552.566,454.08,552.484,454.091,552.214,454.374Z" transform="translate(-519.295 -395.964)" fill="#fff"/>
      <path id="Path_42" data-name="Path 42" d="M651.657,454.374a1.115,1.115,0,0,0-.223,1.175c.153.388.693.529,1.986.529,1.222,0,1.257-.011,1.6-.341a.831.831,0,0,0,.211-1.1c-.2-.447-.588-.552-2-.552C652.021,454.08,651.927,454.091,651.657,454.374Z" transform="translate(-612.746 -395.964)" fill="#fff"/>
      <path id="Path_43" data-name="Path 43" d="M751.342,454.376a.909.909,0,0,0-.176,1.14c.2.447.588.552,1.939.552,1.21,0,1.246-.011,1.586-.341a.806.806,0,0,0,0-1.316c-.341-.341-.364-.341-1.692-.341C751.706,454.071,751.648,454.082,751.342,454.376Z" transform="translate(-706.428 -395.954)" fill="#fff"/>
    </g>
  </g>
</svg>
