<svg xmlns="http://www.w3.org/2000/svg" width="43.35" height="50.212" viewBox="0 0 43.35 50.212">
  <path id="SkillGoogleAnalytics" d="M14.427,44.228a5.984,5.984,0,1,1-1.745-4.245A5.984,5.984,0,0,1,14.427,44.228Zm3.724-19.122V43.643c0,4.226,2.908,6.569,5.984,6.569,2.845,0,5.984-1.988,5.984-6.569V25.4a5.988,5.988,0,0,0-5.984-6.276,6.088,6.088,0,0,0-5.984,5.984ZM33.842,5.984V43.643c0,4.226,2.908,6.569,5.984,6.569,2.845,0,5.984-1.988,5.984-6.569V6.276A5.988,5.988,0,0,0,39.826,0a6.088,6.088,0,0,0-5.984,5.984Z" transform="translate(-2.46)" fill="#fff"/>
</svg>
