<svg xmlns="http://www.w3.org/2000/svg" width="59.516" height="58.028" viewBox="0 0 59.516 58.028">
  <path id="SkillAdobeXD" d="M48.977.45H10.539A10.53,10.53,0,0,0,0,10.989V47.939A10.53,10.53,0,0,0,10.539,58.478H48.977A10.53,10.53,0,0,0,59.516,47.939V10.989A10.53,10.53,0,0,0,48.977.45Zm8.035,46.521A8.984,8.984,0,0,1,48.034,56H11.482a9.017,9.017,0,0,1-9-9V11.932a9.017,9.017,0,0,1,9-9H48.009a9,9,0,0,1,9,9ZM23.534,27.6l6.944,13.341c.124.2.05.4-.149.4H26.013a.487.487,0,0,1-.521-.322c-1.587-3.273-3.2-6.547-4.86-10.068h-.05c-1.488,3.323-3.125,6.82-4.712,10.093a.476.476,0,0,1-.446.273H11.333c-.248,0-.273-.2-.149-.347l6.795-12.945L11.407,14.932a.2.2,0,0,1,.149-.347h4.265a.391.391,0,0,1,.446.273C17.83,18.131,19.417,21.5,20.9,24.8h.05c1.438-3.273,3.025-6.671,4.563-9.919.124-.2.2-.322.446-.322h3.993c.2,0,.273.149.149.347Zm8.159,4.042c0-5.778,3.844-10.291,9.944-10.291a11,11,0,0,1,1.29.05V14.833a.249.249,0,0,1,.248-.248h3.918c.2,0,.248.074.248.2V37.548a17.663,17.663,0,0,0,.124,2.43c0,.149-.05.2-.2.273a14.771,14.771,0,0,1-6.348,1.438C35.536,41.714,31.692,38.391,31.692,31.646ZM42.926,25.3a3.75,3.75,0,0,0-1.438-.248c-3.125,0-5.307,2.405-5.307,6.4,0,4.563,2.232,6.4,5.034,6.4a4.678,4.678,0,0,0,1.711-.273V25.3Z" transform="translate(0 -0.45)" fill="#fff"/>
</svg>
