<svg xmlns="http://www.w3.org/2000/svg" width="61" height="57.85" viewBox="0 0 61 57.85">
  <path id="SkillRedux" d="M42.28,41.3a4.228,4.228,0,0,0,3.809-4.458,4.39,4.39,0,0,0-4.342-4.189h-.154a4.347,4.347,0,0,0-4.189,4.5,4.645,4.645,0,0,0,1.256,2.932C36,45.264,32,49.072,25.94,52.271a20.848,20.848,0,0,1-12.567,2.361,10.956,10.956,0,0,1-7.921-4.57A11.36,11.36,0,0,1,4.8,38.028a17.931,17.931,0,0,1,5.336-6.211A25.318,25.318,0,0,1,9.072,27.9c-11.276,8.078-10.13,19.12-6.7,24.338,2.552,3.808,7.77,6.243,13.482,6.243a19.77,19.77,0,0,0,4.684-.493,29.794,29.794,0,0,0,21.708-16.6l.036-.078Zm13.594-9.522c-5.9-6.931-14.585-10.739-24.489-10.739h-1.3a4.1,4.1,0,0,0-3.806-2.286h-.115a4.261,4.261,0,0,0-4.186,4.455A4.388,4.388,0,0,0,26.323,27.4h.188a4.3,4.3,0,0,0,3.808-2.666h1.412A29.494,29.494,0,0,1,48.223,29.8a20.882,20.882,0,0,1,8.226,9.9,10.512,10.512,0,0,1-.115,9.144,11.324,11.324,0,0,1-10.664,6.4,19.888,19.888,0,0,1-7.541-1.637c-.912.757-2.437,2.017-3.543,2.777a24.452,24.452,0,0,0,10.015,2.4c7.427,0,12.945-4.186,15.043-8.226,2.283-4.57,2.095-12.262-3.735-18.851l-.036.076ZM16.5,42.671a4.382,4.382,0,0,0,4.342,4.189h.153a4.341,4.341,0,0,0-.115-8.68h-.154a1.63,1.63,0,0,0-.573.075,28.439,28.439,0,0,1-4-17.21A20.676,20.676,0,0,1,20.721,9.008c2.286-2.857,6.589-4.267,9.522-4.342,8.226-.154,11.654,10.095,11.92,14.168l3.808,1.14C45.094,7.485,37.328.932,29.9.932c-6.97,0-13.4,5.067-16,12.494-3.542,9.9-1.217,19.423,3.125,27.041a3.381,3.381,0,0,0-.532,2.206Z" transform="translate(-0.001 -0.932)" fill="#fff"/>
</svg>
