<svg xmlns="http://www.w3.org/2000/svg" width="74.058" height="68.472" viewBox="0 0 74.058 68.472">
  <path id="SkilllGitlab" d="M14.947,1.358A3.106,3.106,0,0,0,12,3.493L4.195,27.509c0,.023-.014.037-.023.062L.217,39.715a4.433,4.433,0,0,0,1.611,4.957L35.99,69.494a1.746,1.746,0,0,0,2.067-.012L72.225,44.674a4.431,4.431,0,0,0,1.611-4.968l-3.888-11.93a1.689,1.689,0,0,0-.095-.321L62.06,3.465a3.1,3.1,0,0,0-2.952-2.11,3.044,3.044,0,0,0-2.927,2.129L48.757,26.34H25.31L17.874,3.483a3.044,3.044,0,0,0-2.909-2.129h-.019ZM14.928,5.74l6.708,20.6H8.251Zm44.209,0,6.689,20.6h-13.4l6.708-20.6Zm-32.687,24.1H47.622l-6.634,20.42L37.026,62.418,26.449,29.841Zm-17.015.014H22.77l9.522,29.312L9.434,29.851Zm41.864,0H64.646l-20.683,26.5-2.187,2.82,9.131-28.1.393-1.216ZM6.48,31.775l21.53,27.6L3.888,41.848a.942.942,0,0,1-.346-1.053L6.48,31.773Zm61.092,0L70.51,40.79a.942.942,0,0,1-.339,1.053v.006L46.042,59.375l.078-.109L67.575,31.775Z" transform="translate(0.001 -1.354)" fill="#fff"/>
</svg>
