<svg xmlns="http://www.w3.org/2000/svg" width="68.947" height="68.946" viewBox="0 0 68.947 68.946">
  <g id="SkillBootstrap" transform="translate(-0.005)">
    <path id="Path_12" data-name="Path 12" d="M17.242,0A17.237,17.237,0,0,0,0,17.237V51.71A17.237,17.237,0,0,0,17.242,68.947H51.715A17.237,17.237,0,0,0,68.952,51.71V17.237A17.237,17.237,0,0,0,51.715,0H17.242Zm4.568,51.71H36.784c7.774,0,12.445-3.913,12.445-10.325,0-4.75-3.279-8.256-8.2-8.764V32.19a7.97,7.97,0,0,0,6.385-7.825c0-5.6-4.116-9.091-10.955-9.091H21.807V51.71ZM27.467,30.7V20.073h7.67c4.192,0,6.646,1.969,6.646,5.33,0,3.455-2.6,5.3-7.6,5.3H27.467Zm0,16.21h8.18c5.1,0,7.8-2.068,7.8-5.933,0-3.813-2.8-5.809-8.128-5.809h-7.85Z" fill="#fff" fill-rule="evenodd"/>
  </g>
</svg>
