<svg xmlns="http://www.w3.org/2000/svg" width="70.21" height="68.473" viewBox="0 0 70.21 68.473">
  <path id="SkillGithub" d="M38.1,3A35.107,35.107,0,0,0,27,71.412c1.755.307,2.411-.749,2.411-1.671,0-.831-.044-3.595-.044-6.537-8.818,1.627-11.1-2.148-11.8-4.126-.4-1.011-2.106-4.126-3.6-4.959-1.229-.655-2.984-2.282-.044-2.324,2.766-.044,4.739,2.544,5.4,3.6,3.159,5.308,8.208,3.817,10.223,2.895a7.383,7.383,0,0,1,2.24-4.695c-7.812-.878-15.973-3.906-15.973-17.335a13.669,13.669,0,0,1,3.6-9.436,12.614,12.614,0,0,1,.351-9.3s2.939-.92,9.654,3.6a33.081,33.081,0,0,1,17.552,0c6.712-4.564,9.654-3.595,9.654-3.595a12.614,12.614,0,0,1,.351,9.3,13.581,13.581,0,0,1,3.6,9.432c0,13.473-8.205,16.457-16.015,17.335,1.271,1.1,2.371,3.2,2.371,6.494,0,4.695-.044,8.467-.044,9.654,0,.92.66,2.015,2.415,1.664A35.121,35.121,0,0,0,38.1,3Z" transform="translate(-3 -3)" fill="#fff" fill-rule="evenodd"/>
</svg>
