<svg xmlns="http://www.w3.org/2000/svg" width="89.585" height="22.393" viewBox="0 0 89.585 22.393">
  <path id="SkillHandlebar" d="M74.622,28.863a58.476,58.476,0,0,1-9.1-.744,59.279,59.279,0,0,1-9.361-2.274,21.136,21.136,0,0,1-7.786-4.417,10.078,10.078,0,0,1-3.5-6.562H44.7a10.078,10.078,0,0,1-3.5,6.562,21.136,21.136,0,0,1-7.786,4.417,59.279,59.279,0,0,1-9.361,2.274,58.476,58.476,0,0,1-9.1.744q-2.274,0-4.024-.132a27.367,27.367,0,0,1-3.892-.612,11.926,11.926,0,0,1-3.586-1.356A7.436,7.436,0,0,1,1.01,24.27,7.091,7.091,0,0,1,0,20.465q0-8.4,8.4-8.4a2.6,2.6,0,0,1,2.493,1.4,2.819,2.819,0,0,1,0,2.8,2.6,2.6,0,0,1-2.493,1.4q-.351.087-.786.219a3.74,3.74,0,0,0-1.224.876A2.278,2.278,0,0,0,5.6,20.467q0,2.8,8.4,2.8a11.5,11.5,0,0,0,5.773-1.488A4.564,4.564,0,0,0,22.4,17.668a10.755,10.755,0,0,1,3.193-8.137A11.094,11.094,0,0,1,33.6,6.47a13.867,13.867,0,0,1,6.736,1.617,8.7,8.7,0,0,1,4.024,3.981h.876a8.712,8.712,0,0,1,4.024-3.981A13.83,13.83,0,0,1,55.992,6.47,11.108,11.108,0,0,1,64,9.531a10.75,10.75,0,0,1,3.193,8.137,4.555,4.555,0,0,0,2.625,4.111,11.539,11.539,0,0,0,5.773,1.488q8.4,0,8.4-2.8a2.27,2.27,0,0,0-.7-1.662,4.036,4.036,0,0,0-1.4-.963l-.7-.174a2.6,2.6,0,0,1-2.493-1.4,2.819,2.819,0,0,1,0-2.8,2.6,2.6,0,0,1,2.493-1.4q8.4,0,8.4,8.4a7.06,7.06,0,0,1-1.005,3.8,7.436,7.436,0,0,1-2.449,2.493,11.926,11.926,0,0,1-3.586,1.356,27.366,27.366,0,0,1-3.892.612q-1.749.132-4.024.132Z" transform="translate(0 -6.47)" fill="#fff"/>
</svg>
