<svg xmlns="http://www.w3.org/2000/svg" width="59.519" height="58.027" viewBox="0 0 59.519 58.027">
  <path id="SkillAdobeIllustrator" d="M0,.451V58.478H59.519V.451Zm2.48,2.48H57.039V56H2.48ZM20.645,33.312l-1.966,7.43c-.04.213-.117.251-.359.251H14.676c-.251,0-.289-.078-.251-.359L21.466,15.97a7.521,7.521,0,0,0,.241-2.073c0-.165.088-.241.213-.241h5.193c.165,0,.251.04.289.241l7.9,26.777c.048.2,0,.319-.2.319H31.008c-.213,0-.329-.048-.369-.213l-2.053-7.47H20.633Zm6.917-4.031c-.7-2.741-2.334-8.748-2.945-11.654H24.57c-.522,2.9-1.842,7.809-2.857,11.654ZM38.722,15.5a2.539,2.539,0,1,1,5.079,0,2.38,2.38,0,0,1-2.587,2.539,2.33,2.33,0,0,1-2.5-2.539ZM39,21.135c0-.193.078-.271.281-.271h3.9c.223,0,.3.078.3.289V40.732c0,.2-.04.281-.289.281H39.352c-.251,0-.329-.117-.329-.319V21.132Z" transform="translate(0 -0.451)" fill="#fff"/>
</svg>
