<svg xmlns="http://www.w3.org/2000/svg" width="60.572" height="60.572" viewBox="0 0 60.572 60.572">
  <path id="SkillJira" d="M29.2,29.058H0A13.169,13.169,0,0,0,13.2,42.219h5.376V47.41A13.161,13.161,0,0,0,31.738,60.572l0-28.979A2.536,2.536,0,0,0,29.2,29.058ZM43.649,14.531H14.477A13.161,13.161,0,0,0,27.636,27.69h5.376v5.194A13.169,13.169,0,0,0,46.173,46.043V17.056a2.526,2.526,0,0,0-2.526-2.526ZM58.082,0H28.911A13.161,13.161,0,0,0,42.072,13.161h5.374v5.191A13.161,13.161,0,0,0,60.572,31.5V2.536A2.526,2.526,0,0,0,58.082,0Z" fill="#fff"/>
</svg>
