<svg xmlns="http://www.w3.org/2000/svg" width="44.608" height="41.82" viewBox="0 0 44.608 41.82">
  <g id="flow-chart-line" transform="translate(-2 -3)">
    <path id="Path_7" data-name="Path 7" d="M10.43,20.691H33.292v4.294h2.23V18.461H22.977V14h-2.23v4.461H8.2v6.524h2.23V20.691Z" transform="translate(2.443 4.334)" fill="#ff004f"/>
    <path id="Path_8" data-name="Path 8" d="M18.728,23H4.788A2.788,2.788,0,0,0,2,25.788v8.364A2.788,2.788,0,0,0,4.788,36.94h13.94a2.788,2.788,0,0,0,2.788-2.788V25.788A2.788,2.788,0,0,0,18.728,23ZM4.788,34.152V25.788h13.94v8.364Z" transform="translate(0 7.88)" fill="#ff004f"/>
    <path id="Path_9" data-name="Path 9" d="M36.728,23H22.788A2.788,2.788,0,0,0,20,25.788v8.364a2.788,2.788,0,0,0,2.788,2.788h13.94a2.788,2.788,0,0,0,2.788-2.788V25.788A2.788,2.788,0,0,0,36.728,23ZM22.788,34.152V25.788h13.94v8.364Z" transform="translate(7.092 7.88)" fill="#ff004f"/>
    <path id="Path_10" data-name="Path 10" d="M13.788,16.94h13.94a2.788,2.788,0,0,0,2.788-2.788V5.788A2.788,2.788,0,0,0,27.728,3H13.788A2.788,2.788,0,0,0,11,5.788v8.364A2.788,2.788,0,0,0,13.788,16.94Zm0-11.152h13.94v8.364H13.788Z" transform="translate(3.546)" fill="#ff004f"/>
  </g>
</svg>
