<svg xmlns="http://www.w3.org/2000/svg" width="71.275" height="68.473" viewBox="0 0 71.275 68.473">
  <path id="SkillCss" d="M0,.708V55.774L35.637,69.181,71.275,55.774V.708H0Zm17.066,21.86c5.086.079,8.624,2.637,8.658,7.725H20.206a3.265,3.265,0,0,0-1.8-3.168,3.547,3.547,0,0,0-3.985.919c-.948,1.418-.778,3-.778,4.672-.051,2.225,1.087,4.148,3.346,4.164,2.289-.115,3.376-1.231,3.4-3.292h5.338c-.129,5.466-3.825,7.587-8.658,7.609-6.1.038-9.282-4.261-9.331-9.319-.036-6.1,4.276-9.26,9.331-9.309Zm19.3,0c3.663-.04,7.852,1.556,7.957,5.555v.3H38.908v-.1c-.034-1.313-1.226-1.821-2.322-1.827-.8.02-2.364.192-2.388,1.174.2,1.554,4.061,1.837,5.258,2.132,2.786.592,5.284,2.172,5.363,5.108-.091,4.752-3.946,6.266-7.925,6.282-4.728-.034-8.852-1.17-8.888-6.409h5.464c-.051,1.873,1.412,2.267,2.9,2.271.891,0,2.528-.032,2.54-1.2-.18-1.439-4.172-1.814-5.312-2.1-2.946-.738-5.278-2.273-5.3-5.425.2-4.585,4.32-5.746,8.07-5.759Zm18.9,0c3.926.034,7.953,1.519,7.953,5.86H57.808c.048-1.366-1.21-1.922-2.322-1.926-.8.02-2.364.192-2.388,1.174.17,1.534,4.075,1.841,5.258,2.132,1.94.469,3.922,1.253,4.864,3a4.507,4.507,0,0,1,.5,2.1c-.087,4.754-3.946,6.266-7.925,6.282-4.726-.032-8.852-1.174-8.888-6.409h5.464a1.987,1.987,0,0,0,1.7,2.192c.988.093,3.722.422,3.742-1.123-.216-1.463-4.152-1.81-5.312-2.1-2.95-.738-5.278-2.271-5.3-5.425.2-4.589,4.314-5.746,8.07-5.759Z" transform="translate(0 -0.708)" fill="#fff"/>
</svg>
