<svg xmlns="http://www.w3.org/2000/svg" width="59.519" height="58.03" viewBox="0 0 59.519 58.03">
  <path id="SkillAdobeAudition" d="M16.829,33.309l-1.964,7.44c-.043.205-.124.248-.369.248H10.856c-.248,0-.288-.083-.248-.367l7.04-24.659a7.319,7.319,0,0,0,.248-2.009c0-.164.083-.248.2-.248h5.208c.164,0,.248.043.286.248l7.9,26.707c.04.205,0,.327-.205.327H27.18c-.2,0-.327-.053-.367-.217l-2.045-7.471Zm6.914-4.031c-.694-2.728-2.331-8.751-2.946-11.656h-.04c-.534,2.9-1.843,7.809-2.864,11.656Zm24.492,7.562c0,.286.043,1.146.124,2.536a.248.248,0,0,1-.228.288,20.352,20.352,0,0,1-7.554,1.676c-3.72,0-7.283-1.43-7.283-7.159V21.113c0-.2.083-.327.288-.327h3.89c.2,0,.286.124.286.327V33.648c0,2.415.961,3.72,3.5,3.72a6.929,6.929,0,0,0,2.516-.451v-15.8c0-.2.083-.327.288-.327h3.89c.248,0,.286.124.286.327ZM0,.45V58.481H59.519V.45ZM2.48,2.93H57.039V56H2.48Z" transform="translate(0 -0.45)" fill="#fff"/>
</svg>
