<svg xmlns="http://www.w3.org/2000/svg" width="65.93" height="58.661" viewBox="0 0 65.93 58.661">
  <path id="SkillReactjs" d="M32.963,25.438a5.876,5.876,0,1,0,5.876,5.876A5.876,5.876,0,0,0,32.963,25.438ZM16.5,43l-1.3-.33C5.543,40.229,0,36.083,0,31.3s5.543-8.927,15.207-11.37l1.3-.326.366,1.286a64.636,64.636,0,0,0,3.745,9.828l.278.586-.278.586A64.021,64.021,0,0,0,16.87,41.72L16.5,43Zm-1.9-20.067C7.261,25,2.752,28.153,2.752,31.3s4.509,6.3,11.854,8.367A68.536,68.536,0,0,1,17.853,31.3a67.991,67.991,0,0,1-3.247-8.367ZM49.424,43l-.366-1.289a64.159,64.159,0,0,0-3.747-9.825l-.278-.586.278-.586a64.333,64.333,0,0,0,3.747-9.828l.366-1.286,1.3.326C60.386,22.367,65.93,26.513,65.93,31.3s-5.543,8.927-15.205,11.37l-1.3.33ZM48.076,31.3a67.72,67.72,0,0,1,3.247,8.367C58.67,37.6,63.177,34.444,63.177,31.3S58.669,25,51.323,22.933A68.089,68.089,0,0,1,48.076,31.3Zm-33.49-8.378-.366-1.284C11.5,12.062,12.328,5.2,16.481,2.8,20.554.454,27.1,3.23,33.948,10.266l.934.958-.934.958A64.7,64.7,0,0,0,27.3,20.33l-.372.529-.645.055a64.985,64.985,0,0,0-10.4,1.676l-1.3.326ZM19.794,4.71a3.834,3.834,0,0,0-1.936.474c-2.73,1.573-3.214,7.047-1.333,14.43a69.008,69.008,0,0,1,8.88-1.377,68.251,68.251,0,0,1,5.637-6.988C26.757,7.077,22.7,4.71,19.792,4.71ZM46.135,60.642h0c-3.915,0-8.942-2.947-14.158-8.3l-.934-.958.934-.958a64.636,64.636,0,0,0,6.649-8.153L39,41.74l.643-.055a64.91,64.91,0,0,0,10.4-1.672l1.3-.326.368,1.286c2.71,9.57,1.89,16.434-2.263,18.827a6.538,6.538,0,0,1-3.311.846ZM34.884,51.356c4.285,4.172,8.343,6.539,11.25,6.539h0a3.827,3.827,0,0,0,1.934-.474c2.73-1.573,3.216-7.049,1.333-14.432a68.726,68.726,0,0,1-8.884,1.377,67.776,67.776,0,0,1-5.635,6.99ZM51.34,22.922l-1.3-.326a64.493,64.493,0,0,0-10.4-1.676L39,20.865l-.372-.529a64.316,64.316,0,0,0-6.649-8.149l-.934-.958.934-.958C38.829,3.234,45.366.457,49.444,2.8c4.153,2.4,4.977,9.257,2.263,18.831l-.368,1.286ZM40.517,18.237A68.525,68.525,0,0,1,49.4,19.614c1.884-7.384,1.4-12.856-1.333-14.43-2.714-1.568-7.816.835-13.185,6.065a68.256,68.256,0,0,1,5.635,6.988ZM19.794,60.642a6.538,6.538,0,0,1-3.313-.848c-4.153-2.392-4.977-9.255-2.26-18.827l.363-1.286,1.3.326a64.8,64.8,0,0,0,10.4,1.672l.645.055.368.529a64.816,64.816,0,0,0,6.653,8.153l.934.958-.934.958c-5.214,5.356-10.24,8.3-14.148,8.3ZM16.525,42.989c-1.884,7.384-1.4,12.857,1.333,14.432,2.71,1.546,7.809-.839,13.185-6.065a68.668,68.668,0,0,1-5.637-6.99,68.607,68.607,0,0,1-8.88-1.377Zm16.438,1.725c-2.26,0-4.584-.1-6.911-.291l-.645-.055-.372-.529Q23.061,41,21.327,38.009t-3.2-6.12l-.275-.586.275-.586q1.474-3.125,3.2-6.12c1.137-1.967,2.388-3.928,3.708-5.829l.372-.529.645-.055a81.818,81.818,0,0,1,13.826,0l.643.055.368.529A82.424,82.424,0,0,1,47.8,30.717l.278.586-.278.586a81.308,81.308,0,0,1-6.915,11.949l-.368.529-.643.055C37.552,44.615,35.225,44.714,32.963,44.714Zm-6.036-2.978a79.533,79.533,0,0,0,12.072,0A79.677,79.677,0,0,0,45.031,31.3,78.52,78.52,0,0,0,39,20.871a79.746,79.746,0,0,0-12.07,0A78.224,78.224,0,0,0,20.889,31.3a79.974,79.974,0,0,0,6.036,10.433Z" transform="translate(0 -1.985)" fill="#fff"/>
</svg>
