<svg xmlns="http://www.w3.org/2000/svg" width="59.519" height="58.027" viewBox="0 0 59.519 58.027">
  <path id="SkillAdobePhotoshop" d="M0,.451V58.478H59.519V.451Zm2.48,2.48H57.039V56H2.48ZM14.385,14.043c0-.165.349-.289.552-.289q3.2-.136,6.395-.127c6.878,0,9.551,3.768,9.551,8.592,0,6.307-4.571,9.01-10.173,9.01-.949,0-1.268-.048-1.926-.048v9.533c0,.2-.078.289-.281.289H14.666c-.2,0-.281-.078-.281-.281Zm4.4,13.177c.57.04,1.027.04,2.014.04,2.9,0,5.628-1.027,5.628-4.95,0-3.15-1.956-4.747-5.269-4.747-.979,0-1.918.04-2.372.078Zm21.351-2.956c-1.966,0-2.624.987-2.624,1.8,0,.9.446,1.513,3.07,2.868,3.885,1.89,5.115,3.68,5.115,6.344,0,3.961-3.032,6.092-7.119,6.092A10.878,10.878,0,0,1,33.492,40.3c-.154-.078-.193-.2-.193-.407V36.255c0-.241.117-.329.281-.2a9.115,9.115,0,0,0,4.988,1.473c1.966,0,2.781-.815,2.781-1.926,0-.9-.57-1.676-3.062-2.983-3.526-1.685-5-3.4-5-6.268,0-3.2,2.5-5.851,6.83-5.851a11.84,11.84,0,0,1,4.457.688.541.541,0,0,1,.241.494v3.4c0,.2-.127.329-.369.241a8.957,8.957,0,0,0-4.32-1.066Z" transform="translate(0 -0.451)" fill="#fff"/>
</svg>
