<svg xmlns="http://www.w3.org/2000/svg" width="64.29" height="24.998" viewBox="0 0 64.29 24.998">
  <path id="SkillWix" d="M36.781,11.471c-1.275.666-1.75,1.795-1.75,4.907a4.964,4.964,0,0,1,1.6-.971,6.814,6.814,0,0,0,1.639-.888c1.075-.791,1.243-1.805,1.243-3.515a6.952,6.952,0,0,0-2.734.466m-7.554.729a4.883,4.883,0,0,0-1.345,2.377L24.443,27.9,21.582,16.991a9.3,9.3,0,0,0-1.575-3.563,4.778,4.778,0,0,0-6.579,0,9.338,9.338,0,0,0-1.575,3.563L8.992,27.9,5.552,14.573A4.884,4.884,0,0,0,4.213,12.2,5.965,5.965,0,0,0,0,11.032L6.588,35.937a8.1,8.1,0,0,0,3.261-.4c1.429-.729,2.109-1.291,2.973-4.681.768-3.02,2.922-11.894,3.123-12.526.1-.311.229-1.059.777-1.059s.675.745.771,1.059c.2.632,2.357,9.508,3.127,12.526.866,3.388,1.543,3.952,2.973,4.681a8.082,8.082,0,0,0,3.257.4l6.59-24.905A5.949,5.949,0,0,0,29.23,12.2m10.286,2.9a4.026,4.026,0,0,1-1.354,1.163c-.6.338-1.18.568-1.805.866a1.885,1.885,0,0,0-1.323,1.9V35.94a5.672,5.672,0,0,0,2.75-.343c1.4-.713,1.72-1.4,1.734-4.5V16h0Zm16.421,8.445L64.29,11.114s-3.527-.6-5.275.988a20,20,0,0,0-2.366,2.848l-3.073,4.432a.844.844,0,0,1-.655.482.828.828,0,0,1-.655-.482L49.189,14.95A20.061,20.061,0,0,0,46.821,12.1c-1.747-1.588-5.275-.991-5.275-.991L49.9,23.543,41.567,35.935s3.675.466,5.422-1.125a16.572,16.572,0,0,0,2.2-2.673l3.079-4.431a.687.687,0,0,1,1.311,0l3.075,4.431a18.715,18.715,0,0,0,2.261,2.673c1.747,1.591,5.357,1.125,5.357,1.125Z" transform="translate(0 -11)" fill="#fff"/>
</svg>
