<svg xmlns="http://www.w3.org/2000/svg" width="70.531" height="67.01" viewBox="0 0 70.531 67.01">
  <path id="SkillGraphDB" d="M62.246,2.25A9.4,9.4,0,0,0,57.2,19.577L51.067,41.049q-.286-.018-.572-.019a9.351,9.351,0,0,0-5.609,1.861L33.552,33.447a9.4,9.4,0,1,0-15.483,3.719L11.415,50.471q-.437-.04-.875-.04a9.414,9.414,0,1,0,5.323,1.659l6.286-12.572a9.378,9.378,0,0,0,8.81-2.108l10.972,9.144a9.4,9.4,0,1,0,13.6-4.049l6.134-21.47c.19.01.38.019.572.019a9.4,9.4,0,0,0,0-18.8ZM10.54,64.533a4.7,4.7,0,1,1,4.7-4.7,4.7,4.7,0,0,1-4.7,4.7Zm14.1-29.38a4.7,4.7,0,1,1,4.7-4.7A4.7,4.7,0,0,1,24.642,35.154ZM50.495,55.132a4.7,4.7,0,1,1,4.7-4.7,4.7,4.7,0,0,1-4.7,4.7ZM62.246,16.352a4.7,4.7,0,1,1,4.7-4.7,4.7,4.7,0,0,1-4.7,4.7Z" transform="translate(-1.112 -2.25)" fill="#fff"/>
</svg>
