<svg xmlns="http://www.w3.org/2000/svg" width="68.946" height="68.946" viewBox="0 0 68.946 68.946">
  <path id="SkillScss" d="M37.473,3A34.473,34.473,0,1,1,3,37.473,34.477,34.477,0,0,1,37.473,3ZM30.622,48.96a8.767,8.767,0,0,1-.074,5.148l-.186.517a9.662,9.662,0,0,1-1.816,2.831c-2.006,2.183-4.806,3.006-6.005,2.312-1.294-.756-.648-3.833,1.678-6.29a23.533,23.533,0,0,1,6.088-4.337v-.007l.315-.172Zm28.468-31.2c-1.558-6.125-11.709-8.143-21.32-4.725-5.709,2.029-11.9,5.222-16.352,9.388-5.3,4.943-6.136,9.253-5.791,11.052,1.223,6.352,9.931,10.507,13.513,13.589v.016c-1.059.513-8.784,4.392-10.59,8.4-1.94,4.224.3,7.242,1.77,7.625C24.847,64.36,29.5,62.075,32,58.373a11.943,11.943,0,0,0,1.163-10.56,13.411,13.411,0,0,1,5.254-.3c6.037.685,7.242,4.482,6.977,6.033a4.132,4.132,0,0,1-1.935,2.71c-.434.262-.561.349-.519.519.044.255.262.255.6.218a4.778,4.778,0,0,0,3.277-4.231c.126-3.7-3.406-7.837-9.7-7.756a15.568,15.568,0,0,0-5.389.738,1.018,1.018,0,0,0-.3-.3c-3.879-4.183-11.075-7.113-10.774-12.668.087-2.027.816-7.366,13.789-13.831,10.645-5.3,19.135-3.833,20.606-.6,2.1,4.606-4.53,13.187-15.6,14.433-4.224.476-6.419-1.163-6.984-1.77-.6-.648-.683-.689-.9-.554-.349.172-.131.731,0,1.08a6.628,6.628,0,0,0,4.008,3.144c2.022.648,6.977,1.032,12.927-1.294C55.172,30.8,60.384,23.6,58.879,17.566l.207.193Z" transform="translate(-3 -3)" fill="#fff"/>
</svg>
