<svg xmlns="http://www.w3.org/2000/svg" width="59.515" height="58.027" viewBox="0 0 59.515 58.027">
  <path id="SkillAdobeAfterEffects" d="M0,.45V58.477H59.515V.45ZM2.48,2.93H57.035V56H2.48ZM16.823,33.307l-1.964,7.4c-.043.2-.124.281-.367.281h-3.64c-.248,0-.288-.088-.248-.372L17.646,15.99a7.346,7.346,0,0,0,.243-2.033c0-.164.083-.248.2-.248h5.2c.164,0,.248.045.288.248l7.892,26.707c.04.2,0,.322-.2.322H27.175c-.2,0-.322-.074-.364-.238L24.767,33.3H16.831Zm6.958-4.027c-.694-2.743-2.381-8.754-2.991-11.655h-.04c-.531,2.9-1.875,7.806-2.9,11.655Zm13.292,2.539c.043,3.356,1.637,5.6,5.4,5.6a9.573,9.573,0,0,0,4.042-.769c.167-.079.291-.036.291.167v3.11a.541.541,0,0,1-.248.5,11.04,11.04,0,0,1-4.984.942c-6.547,0-9-4.829-9-10.23,0-5.852,3.03-10.638,8.349-10.638,5.4,0,7.282,4.545,7.282,8.226a12.057,12.057,0,0,1-.212,2.62.347.347,0,0,1-.327.316,34.8,34.8,0,0,1-4.135.164H37.073Zm5.034-3.411a13.725,13.725,0,0,0,1.84-.04c0-.169.043-.311.043-.431,0-1.352-.66-3.829-3.239-3.829-2.372,0-3.4,2.088-3.64,4.3H42.1Z" transform="translate(0 -0.45)" fill="#fff"/>
</svg>
