<svg xmlns="http://www.w3.org/2000/svg" width="58.689" height="68.473" viewBox="0 0 58.689 68.473">
  <path id="SkillExcel" d="M56.091,14.52a8.875,8.875,0,0,1,1.833,2.9,8.862,8.862,0,0,1,.765,3.363V64.8a3.656,3.656,0,0,1-3.669,3.669H3.669a3.534,3.534,0,0,1-2.6-1.071A3.547,3.547,0,0,1,0,64.8V3.669a3.534,3.534,0,0,1,1.071-2.6A3.547,3.547,0,0,1,3.669,0H37.9a8.814,8.814,0,0,1,3.363.765,8.917,8.917,0,0,1,2.9,1.833ZM39.125,5.2V19.564H53.493A4.175,4.175,0,0,0,52.652,18L40.693,6.037A4.175,4.175,0,0,0,39.125,5.2ZM53.8,63.579V24.454H37.9a3.656,3.656,0,0,1-3.669-3.669V4.89H4.89V63.579H53.8ZM16.391,54.638v4.049H27.128V54.638H24.261L28.2,48.487a5.791,5.791,0,0,0,.382-.63q.192-.361.287-.515T29,47.19h.076a1.334,1.334,0,0,0,.19.382,2.23,2.23,0,0,0,.171.287q.1.135.23.306t.249.325l4.089,6.151H31.1v4.049H42.22V54.642h-2.6l-7.336-10.43,7.45-10.775H42.3V29.345H31.637v4.089h2.828L30.53,39.51q-.152.268-.382.63t-.344.515l-.076.114h-.076a1.334,1.334,0,0,0-.19-.382,4.585,4.585,0,0,0-.65-.879L24.76,33.433h2.9V29.345H16.583v4.089h2.6L26.4,43.827,18.991,54.64h-2.6Z" fill="#fff"/>
</svg>
