<svg xmlns="http://www.w3.org/2000/svg" width="58.689" height="68.473" viewBox="0 0 58.689 68.473">
  <path id="SkillPowerpoint" d="M56.091,14.52a8.875,8.875,0,0,1,1.833,2.9,8.862,8.862,0,0,1,.765,3.363V64.8a3.656,3.656,0,0,1-3.669,3.669H3.669a3.534,3.534,0,0,1-2.6-1.071A3.547,3.547,0,0,1,0,64.8V3.669a3.534,3.534,0,0,1,1.071-2.6A3.547,3.547,0,0,1,3.669,0H37.9a8.814,8.814,0,0,1,3.363.765,8.917,8.917,0,0,1,2.9,1.833ZM39.125,5.2V19.564H53.493A4.175,4.175,0,0,0,52.652,18L40.693,6.037A4.175,4.175,0,0,0,39.125,5.2ZM53.8,63.579V24.454H37.9a3.656,3.656,0,0,1-3.669-3.669V4.89H4.89V63.579H53.8Zm-37.9-8.941v4.049H28.387V54.638H24.834V48.257h5.234a13.965,13.965,0,0,0,4.51-.572,7.586,7.586,0,0,0,4.07-3.325,10.4,10.4,0,0,0,1.51-5.578,10.065,10.065,0,0,0-1.413-5.388,8.189,8.189,0,0,0-3.821-3.325,13.818,13.818,0,0,0-4.968-.727H15.895v4.089H19.41V54.638H15.895Zm13.489-10.7H24.836V33.7h4.586a6.286,6.286,0,0,1,3.171.689q2.14,1.261,2.14,4.394,0,3.4-2.37,4.586a6.84,6.84,0,0,1-2.98.572Z" fill="#fff"/>
</svg>
