<svg xmlns="http://www.w3.org/2000/svg" width="61" height="61.287" viewBox="0 0 61 61.287">
  <path id="SkillWordpress" d="M30.764,0A31.523,31.523,0,0,0,2.274,18.366l14.581.034v1.6c-4.489-.54-4.094,1.791-3.459,4.266L22.969,48.25,30,31.758l-3.229-7.729c-1.173-2.07-1.2-4.367-6-4.15l.068-1.469,21.386.053v1.646c-2.5.146-5.519-.63-3.921,4.5l8.65,22.72,4.728-13.263c1.547-5.56.092-10.9-1.748-16.144-1.023-3.515-.546-6.45,4.04-7.615C46.978,3.16,38.716.014,30.766,0ZM59.85,20.975,45.985,57.116c3.829-3.316,7.754-4.523,12.559-13.7,3.2-7.632,2.867-14.7,1.306-22.441ZM.807,21.561C-.546,32.23-.422,35.356,2.928,44.067c4.367,8.345,7.753,10.1,12.559,13.376L.807,21.561ZM31.306,35.1,21.032,59.889C28.245,61.947,34.7,61.69,40.6,59.4l-9.3-24.3Z" transform="translate(0)" fill="#fff"/>
</svg>
