<svg xmlns="http://www.w3.org/2000/svg" width="39.543" height="59.314" viewBox="0 0 39.543 59.314">
  <path id="SkillFigma" d="M25.771,29.657a9.886,9.886,0,1,1,9.886,9.886,9.886,9.886,0,0,1-9.886-9.886ZM6,49.429a9.886,9.886,0,0,1,9.886-9.886h9.886v9.886A9.886,9.886,0,1,1,6,49.429ZM25.771,0V19.771h9.886A9.886,9.886,0,0,0,35.657,0ZM6,9.886a9.886,9.886,0,0,0,9.886,9.886h9.886V0H15.886A9.886,9.886,0,0,0,6,9.886ZM6,29.657a9.886,9.886,0,0,0,9.886,9.886h9.886V19.771H15.886A9.886,9.886,0,0,0,6,29.657Z" transform="translate(-6)" fill="#fff"/>
</svg>
