<svg xmlns="http://www.w3.org/2000/svg" width="68.946" height="68.946" viewBox="0 0 68.946 68.946">
  <path id="SkillJavascript" d="M0,0H68.946V68.946H0ZM63.3,52.5c-.5-3.147-2.551-5.788-8.628-8.252-2.114-.99-4.464-1.68-5.163-3.275a3.374,3.374,0,0,1-.132-2.024c.431-1.856,2.63-2.413,4.351-1.9a4.673,4.673,0,0,1,2.8,2.585C59.5,37.7,59.5,37.7,61.571,36.407a11.89,11.89,0,0,0-1.683-2.241c-1.81-2.024-4.221-3.059-8.141-2.97l-2.024.257a9.265,9.265,0,0,0-4.912,2.886,9.014,9.014,0,0,0,1.634,12.845c3.92,2.93,9.656,3.574,10.388,6.335.689,3.361-2.5,4.437-5.648,4.051-2.331-.517-3.62-1.683-5.041-3.838L40.885,56.75a11.613,11.613,0,0,0,2.327,3.185c5,5.045,17.5,4.786,19.738-2.884a9.708,9.708,0,0,0,.213-4.74l.132.193ZM37.491,31.69H31.033c0,5.567-.025,11.1-.025,16.675,0,3.539.182,6.789-.4,7.787-.948,1.978-3.39,1.726-4.5,1.379a5.551,5.551,0,0,1-2.384-2.455,2.426,2.426,0,0,0-.366-.563l-5.242,3.233a10.175,10.175,0,0,0,3.8,4.359,12.64,12.64,0,0,0,9.212,1.164,8.058,8.058,0,0,0,5.2-4.054c1.465-2.672,1.155-5.947,1.141-9.612.034-5.9,0-11.8,0-17.75l.011-.161Z" fill="#fff"/>
</svg>
