<svg xmlns="http://www.w3.org/2000/svg" width="82.89" height="18.341" viewBox="0 0 82.89 18.341">
  <path id="SkillCPanel" d="M15.839,14.022a1.858,1.858,0,0,0-1.174.391,1.939,1.939,0,0,0-.679,1.034L9.464,32.354h3.184a1.824,1.824,0,0,0,1.147-.391,1.939,1.939,0,0,0,.691-1l3.343-12.447H20.4a2.339,2.339,0,0,1,1.1.265,2.427,2.427,0,0,1,.829.686,2.528,2.528,0,0,1,.447.972,2.245,2.245,0,0,1-.035,1.126A2.411,2.411,0,0,1,20.4,23.376H19.07a1.858,1.858,0,0,0-1.165.391,1.939,1.939,0,0,0-.691,1l-.829,3.094h4.149a6.7,6.7,0,0,0,5.595-2.993,6.866,6.866,0,0,0,.916-2.024l.094-.345a6.4,6.4,0,0,0,.09-3.134,6.815,6.815,0,0,0-3.56-4.628,6.477,6.477,0,0,0-3.039-.725H15.842Zm63.708,0a1.386,1.386,0,0,0-.863.283,1.3,1.3,0,0,0-.483.751l-4.607,17.3a5.871,5.871,0,0,0,1.969-.332,6.237,6.237,0,0,0,1.713-.919A6.01,6.01,0,0,0,78.605,29.7a5.691,5.691,0,0,0,.808-1.833L82.853,15.1a.794.794,0,0,0-.157-.751.85.85,0,0,0-.691-.329Zm-50.6,4.48-.46,1.736a1.948,1.948,0,0,0-.021.9,1.879,1.879,0,0,0,.345.764,1.906,1.906,0,0,0,.638.532,1.83,1.83,0,0,0,.87.207H37.77a.35.35,0,0,1,.29.131.338.338,0,0,1,.051.3l-.069.249-1.119,4.149-.044.191a.594.594,0,0,1-.233.364.707.707,0,0,1-.44.138H31.7a.507.507,0,0,1-.414-.2.47.47,0,0,1-.094-.449.487.487,0,0,1,.507-.387h2.791a1.83,1.83,0,0,0,1.147-.387,1.948,1.948,0,0,0,.691-1.013l.456-1.72H30.531a3.9,3.9,0,0,0-1.312.226,3.979,3.979,0,0,0-1.117.608,4.124,4.124,0,0,0-.884.937,3.633,3.633,0,0,0-.539,1.195l-.1.345a3.783,3.783,0,0,0-.044,1.842,4.154,4.154,0,0,0,.732,1.6,3.942,3.942,0,0,0,3.17,1.563l7.451.021a3.106,3.106,0,0,0,3.023-2.314L42.729,23.3a3.8,3.8,0,0,0,.035-1.775,3.847,3.847,0,0,0-.707-1.533,3.969,3.969,0,0,0-1.3-1.078,3.619,3.619,0,0,0-1.72-.414H28.942Zm-22.094.035a6.645,6.645,0,0,0-2.2.371,6.87,6.87,0,0,0-1.911,1.02A6.776,6.776,0,0,0,.321,23.535l-.094.345a6.686,6.686,0,0,0-.081,3.124A6.753,6.753,0,0,0,1.392,29.72,6.859,6.859,0,0,0,3.7,31.633a6.477,6.477,0,0,0,3.039.725h1.6l.919-3.394a.794.794,0,0,0-.15-.744.824.824,0,0,0-.684-.332H6.966a2.425,2.425,0,0,1-1.1-.256,2.314,2.314,0,0,1-.829-.672,2.528,2.528,0,0,1-.44-.972,2.438,2.438,0,0,1,.035-1.174,2.521,2.521,0,0,1,.884-1.3,2.332,2.332,0,0,1,1.451-.484H9.37a1.858,1.858,0,0,0,1.167-.394,1.939,1.939,0,0,0,.686-1.027l.8-3.074H6.844Zm38.266,0L41.728,31.278a.794.794,0,0,0,.157.751.822.822,0,0,0,.672.329h2.457a1.425,1.425,0,0,0,.856-.276,1.252,1.252,0,0,0,.493-.725l2.224-8.323h2.572a2.341,2.341,0,0,1,1.1.258,2.445,2.445,0,0,1,.822.691,2.54,2.54,0,0,1,.447.967,2.245,2.245,0,0,1-.035,1.13l-1.375,5.2a.838.838,0,0,0,.829,1.078h2.461a1.393,1.393,0,0,0,.843-.276,1.264,1.264,0,0,0,.493-.737l1.147-4.31a6.55,6.55,0,0,0,.1-3.136,6.753,6.753,0,0,0-1.246-2.728,6.863,6.863,0,0,0-2.307-1.913,6.523,6.523,0,0,0-3.058-.723H45.117Zm20.008,0a5.035,5.035,0,0,0-1.685.279,5.166,5.166,0,0,0-3.3,3.571l-1.4,5.2a3.516,3.516,0,0,0-.055,1.754,3.933,3.933,0,0,0,.707,1.54,3.783,3.783,0,0,0,1.3,1.078,3.7,3.7,0,0,0,1.72.4h8.641a1.824,1.824,0,0,0,1.147-.391,1.939,1.939,0,0,0,.691-1l.725-2.733H64.123a.691.691,0,0,1-.658-.87L64.5,23.462a1.174,1.174,0,0,1,.391-.559.972.972,0,0,1,.622-.221h4.255a.527.527,0,0,1,.507.665l-.09.345a.488.488,0,0,1-.5.391h-2.8a1.858,1.858,0,0,0-1.172.385,1.817,1.817,0,0,0-.658,1.013l-.46,1.692h6.921a3.065,3.065,0,0,0,1.89-.624,2.984,2.984,0,0,0,1.105-1.667l.414-1.554a3.834,3.834,0,0,0,.044-1.773,3.716,3.716,0,0,0-.7-1.529,3.958,3.958,0,0,0-1.3-1.082,3.617,3.617,0,0,0-1.72-.41h-6.12Z" transform="translate(0.001 -14.017)" fill="#fff"/>
</svg>
