<svg xmlns="http://www.w3.org/2000/svg" width="58.192" height="67.893" viewBox="0 0 58.192 67.893">
  <path id="SkillWord" d="M55.616,14.4a8.8,8.8,0,0,1,1.818,2.88,8.787,8.787,0,0,1,.758,3.334V64.255a3.625,3.625,0,0,1-3.638,3.638H3.638a3.5,3.5,0,0,1-2.576-1.062A3.517,3.517,0,0,1,0,64.255V3.638A3.5,3.5,0,0,1,1.062,1.062,3.517,3.517,0,0,1,3.638,0H37.583a8.74,8.74,0,0,1,3.334.758A8.841,8.841,0,0,1,43.8,2.576ZM38.794,5.152V19.4H53.04a4.14,4.14,0,0,0-.834-1.554L40.348,5.986a4.14,4.14,0,0,0-1.554-.834ZM53.341,63.04V24.246H37.583a3.625,3.625,0,0,1-3.638-3.638V4.849H4.849V63.04H53.341ZM8.828,29.1v4.055h2.652l6.214,25.042h6.023L28.565,39.82a10.266,10.266,0,0,0,.454-2.652h.151l.113.909a7.344,7.344,0,0,1,.132.758,6.09,6.09,0,0,0,.207.984l4.849,18.374h6.023l6.214-25.042H49.36V29.1H37.994v4.055H41.4L37.653,49.745a10.76,10.76,0,0,0-.266,1.743l-.075.8h-.151a1.781,1.781,0,0,0-.019-.247q-.019-.134-.057-.3a1.291,1.291,0,0,1-.038-.247q-.038-.189-.151-.8t-.189-.947L31.256,29.1h-4.32L21.48,49.745q-.075.341-.17.928t-.132.813l-.151.8h-.151l-.075-.8a10.49,10.49,0,0,0-.266-1.743L16.784,33.15h3.41V29.1Z" fill="#fff"/>
</svg>
