<svg xmlns="http://www.w3.org/2000/svg" width="59.314" height="59.314" viewBox="0 0 59.314 59.314">
  <path id="SkillCanva" d="M29.657,0A29.657,29.657,0,1,0,59.314,29.657,29.657,29.657,0,0,0,29.657,0ZM17.206,18.981a3.421,3.421,0,0,1,3.472,2.966,3.221,3.221,0,0,1-2.032,3.475c-.849.423-1.186.425-1.358.171-.084-.171,0-.339.171-.509a3.471,3.471,0,0,0,1.354-3.727,1.56,1.56,0,0,0-1.44-1.527c-2.966,0-7.2,6.609-6.609,11.439.254,1.863,1.358,4.068,3.729,4.068a6.134,6.134,0,0,0,2.373-.593,8.826,8.826,0,0,0,2.71-1.977,4.874,4.874,0,0,1,4.574-5.057c1.272,0,2.289.506,2.373,1.44a1.2,1.2,0,0,1-1.27,1.438c-.338,0-.934-.084-.934-.42-.084-.341.764-.173.68-.934-.087-.509-.593-.677-1.1-.677-1.779,0-2.794,2.457-2.542,3.982.087.68.425,1.358,1.1,1.358.506,0,1.27-.766,1.524-1.867a1.6,1.6,0,0,1,1.44-1.27c.252,0,.42.084.506.423v.341a5.677,5.677,0,0,0-.252,1.61.393.393,0,0,0,.42.423,5.438,5.438,0,0,0,1.919-1.135c.29-1.458.626-3.208.626-3.353.084-.593.339-1.186,1.524-1.186.254,0,.423.084.506.423v.341l-.336,1.524c1.1-1.44,2.71-2.457,3.727-2.457a.692.692,0,0,1,.764.677,2.878,2.878,0,0,1-.171,1.1,27.432,27.432,0,0,0-1.018,3.643c0,.339.087.677.511.677a4.409,4.409,0,0,0,2.709-1.863l.018-.01c0-.168-.018-.331-.018-.5a9.461,9.461,0,0,1,.257-2.457,1.909,1.909,0,0,1,1.524-1.27.474.474,0,0,1,.506.423.512.512,0,0,1-.084.339,10.725,10.725,0,0,0-.593,3.135,7.273,7.273,0,0,0,.252,1.947.187.187,0,0,0,.173.171,7.8,7.8,0,0,0,2.2-2.541,2.754,2.754,0,0,1-1.186-2.373c0-1.779,1.1-2.71,2.12-2.71.849,0,1.524.593,1.524,1.779a5.07,5.07,0,0,1-.677,2.373h.252a1.9,1.9,0,0,0,1.443-.593.725.725,0,0,1,.331-.29,4.492,4.492,0,0,1,3.485-1.829c1.186,0,2.284.506,2.369,1.438a1.278,1.278,0,0,1-1.272,1.527l0,0c-.341,0-.933-.087-.933-.425s.764-.168.677-.929c-.084-.509-.593-.68-1.1-.68-1.7,0-2.793,2.2-2.541,3.982.084.68.423,1.44,1.1,1.44.509,0,1.272-.761,1.611-1.863a1.7,1.7,0,0,1,1.44-1.27c.254,0,.42.084.506.423a5.2,5.2,0,0,1-.339,1.611,1.988,1.988,0,0,0-.339,1.524,2.136,2.136,0,0,0,.764,1.44,1.209,1.209,0,0,1,.168.252.311.311,0,0,1-.339.341.306.306,0,0,1-.254-.087,2.906,2.906,0,0,1-1.949-2.2A2.328,2.328,0,0,1,46.166,35a2.611,2.611,0,0,1-2.373-2.289,3.976,3.976,0,0,1,.185-1.6,2.923,2.923,0,0,1-1.539.5h-.42a11.281,11.281,0,0,1-3.139,3.219,2.214,2.214,0,0,1-.933.257.6.6,0,0,1-.506-.257,4.378,4.378,0,0,1-.476-1.649,6.022,6.022,0,0,1-3.59,1.99,1.356,1.356,0,0,1-1.438-1.359v-.929a20.416,20.416,0,0,1,.933-3.305A.183.183,0,0,0,32.7,29.4c-.593,0-2.541,2.036-2.882,3.392l-.254,1.1a1.68,1.68,0,0,1-1.438,1.272c-.254,0-.425-.087-.509-.425V34.4l.114-.577a6.194,6.194,0,0,1-2.656,1.255,1.159,1.159,0,0,1-1.27-1.018,2.229,2.229,0,0,1-1.863,1.018,2.458,2.458,0,0,1-2.13-1.465A10.311,10.311,0,0,1,17.7,35.5a7.562,7.562,0,0,1-4.152,1.358,5.048,5.048,0,0,1-3.388-1.44,5.652,5.652,0,0,1-1.7-3.729C7.963,27.537,10.5,22.2,14.4,19.826a5.98,5.98,0,0,1,2.8-.849Zm24.146,8.133c-.257,0-.425.425-.425.849a2.868,2.868,0,0,0,.764,1.867,4.3,4.3,0,0,0,.252-1.44c0-.849-.339-1.272-.593-1.272Z" fill="#fff"/>
</svg>
