<svg xmlns="http://www.w3.org/2000/svg" width="59.515" height="58.027" viewBox="0 0 59.515 58.027">
  <path id="SkillAdobePremierepro" d="M15.614,14.034c0-.164.04-.288.246-.288,1.6-.083,3.928-.124,6.383-.124,6.874,0,9.86,3.766,9.86,8.595,0,6.3-4.558,9-10.166,9-.941,0-1.266-.043-1.923-.043v9.529c0,.2-.083.288-.288.288H15.9c-.2,0-.286-.083-.286-.288Zm4.4,13.176c.574.04,1.022.04,2,.04,2.906,0,5.624-1.022,5.624-4.95,0-3.149-1.943-4.746-5.256-4.746-.982,0-1.924.04-2.372.083Zm15.871-2.252c0-.286,0-1.022-.124-2.414,0-.2.03-.248.193-.327A25.84,25.84,0,0,1,45.022,20.5c.2,0,.288.04.288.246v3.6c0,.2-.068.246-.273.246a14.2,14.2,0,0,0-4.687.491V40.709c0,.2-.083.288-.288.288h-3.89c-.2,0-.286-.083-.286-.288ZM0,.45V58.477H59.515V.45ZM2.48,2.93H57.035V56H2.48Z" transform="translate(0 -0.45)" fill="#fff"/>
</svg>
